<svg width="29" height="29" viewBox="0 0 29 29" fill="none" xmlns="http://www.w3.org/2000/svg">
<g id="majesticons:search-line">
<path id="Vector" d="M23.7953 23.9181L19.0584 19.1813L23.7953 23.9181ZM19.0584 19.1813C19.8187 18.421 20.4218 17.5184 20.8333 16.525C21.2447 15.5317 21.4565 14.467 21.4565 13.3918C21.4565 12.3166 21.2447 11.2519 20.8333 10.2586C20.4218 9.26521 19.8187 8.36262 19.0584 7.60234C18.2982 6.84205 17.3956 6.23896 16.4022 5.8275C15.4089 5.41604 14.3442 5.20426 13.269 5.20426C12.1938 5.20426 11.1291 5.41604 10.1357 5.8275C9.14237 6.23896 8.23978 6.84205 7.4795 7.60234C5.94404 9.1378 5.08142 11.2203 5.08142 13.3918C5.08142 15.5633 5.94404 17.6458 7.4795 19.1813C9.01496 20.7167 11.0975 21.5794 13.269 21.5794C15.4404 21.5794 17.523 20.7167 19.0584 19.1813V19.1813Z" stroke="white" stroke-width="3" stroke-linecap="round" stroke-linejoin="round"/>
</g>
</svg>
