<svg width="40" height="40" viewBox="0 0 40 40" fill="none" xmlns="http://www.w3.org/2000/svg">
<g id="vuesax/linear/shopping-cart">
<g id="shopping-cart">
<path id="Vector" d="M3.74469 4.2052H6.55429C8.29817 4.2052 9.67067 5.70688 9.52535 7.43462L8.18514 23.5171C7.95908 26.1491 10.042 28.4097 12.6902 28.4097H29.8868C32.212 28.4097 34.2465 26.5043 34.4241 24.1953L35.2961 12.085C35.4898 9.40457 33.4553 7.2247 30.7587 7.2247H9.91289" stroke="#292929" stroke-width="2.42206" stroke-miterlimit="10" stroke-linecap="round" stroke-linejoin="round"/>
<path id="Vector_2" d="M26.7543 36.4994C27.869 36.4994 28.7727 35.5958 28.7727 34.481C28.7727 33.3663 27.869 32.4626 26.7543 32.4626C25.6396 32.4626 24.7359 33.3663 24.7359 34.481C24.7359 35.5958 25.6396 36.4994 26.7543 36.4994Z" stroke="#292929" stroke-width="2.42206" stroke-miterlimit="10" stroke-linecap="round" stroke-linejoin="round"/>
<path id="Vector_3" d="M13.8366 36.4994C14.9513 36.4994 15.855 35.5958 15.855 34.481C15.855 33.3663 14.9513 32.4626 13.8366 32.4626C12.7219 32.4626 11.8182 33.3663 11.8182 34.481C11.8182 35.5958 12.7219 36.4994 13.8366 36.4994Z" stroke="#292929" stroke-width="2.42206" stroke-miterlimit="10" stroke-linecap="round" stroke-linejoin="round"/>
<path id="Vector_4" d="M15.0477 13.8934H34.4242" stroke="#292929" stroke-width="2.42206" stroke-miterlimit="10" stroke-linecap="round" stroke-linejoin="round"/>
</g>
</g>
</svg>
